<svg viewBox="0 0 1600 900" xmlns="http://www.w3.org/2000/svg">
  <defs>
    <linearGradient id="sky6" x1="0" y1="0" x2="0" y2="1">
      <stop offset="0%" stop-color="#eafaf6"/>
      <stop offset="100%" stop-color="#cdf2e9"/>
    </linearGradient>
  </defs>
  <rect width="1600" height="900" fill="url(#sky6)"/>
  <circle cx="260" cy="180" r="90" fill="#f59e0b" opacity="0.85"/>

  <path d="M0,640 Q400,560 800,620 T1600,580 V900 H0 Z" fill="#5addcd" opacity="0.45"/>
  <path d="M0,900 V740 Q400,680 800,720 T1600,700 V900 Z" fill="#16c8b5"/>

  <!-- network of community nodes -->
  <g stroke="#0f877a" stroke-width="3" opacity="0.5">
    <line x1="800" y1="430" x2="650" y2="540"/>
    <line x1="800" y1="430" x2="950" y2="540"/>
    <line x1="800" y1="430" x2="800" y2="320"/>
    <line x1="650" y1="540" x2="500" y2="470"/>
    <line x1="950" y1="540" x2="1100" y2="470"/>
    <line x1="650" y1="540" x2="950" y2="540"/>
    <line x1="800" y1="320" x2="650" y2="540"/>
    <line x1="800" y1="320" x2="950" y2="540"/>
  </g>

  <circle cx="800" cy="430" r="44" fill="#14b8a6"/>
  <circle cx="650" cy="540" r="34" fill="#f59e0b"/>
  <circle cx="950" cy="540" r="34" fill="#fb923c"/>
  <circle cx="800" cy="320" r="30" fill="#16c8b5"/>
  <circle cx="500" cy="470" r="26" fill="#5addcd"/>
  <circle cx="1100" cy="470" r="26" fill="#5addcd"/>

  <!-- subtle inner faces -->
  <circle cx="800" cy="420" r="10" fill="#ffffff" opacity="0.7"/>
  <circle cx="650" cy="532" r="8" fill="#ffffff" opacity="0.7"/>
  <circle cx="950" cy="532" r="8" fill="#ffffff" opacity="0.7"/>
</svg>
