<svg width="953" height="239" viewBox="0 0 953 239" fill="none" xmlns="http://www.w3.org/2000/svg">
<path d="M248.88 203.355C249.51 202.258 250.443 201.348 251.68 200.625C252.94 199.878 254.398 199.505 256.055 199.505C257.758 199.505 259.298 199.913 260.675 200.73C262.075 201.547 263.172 202.702 263.965 204.195C264.758 205.665 265.155 207.38 265.155 209.34C265.155 211.277 264.758 213.003 263.965 214.52C263.172 216.037 262.075 217.215 260.675 218.055C259.298 218.895 257.758 219.315 256.055 219.315C254.422 219.315 252.975 218.953 251.715 218.23C250.478 217.483 249.533 216.562 248.88 215.465V228.1H245.695V199.82H248.88V203.355ZM261.9 209.34C261.9 207.893 261.608 206.633 261.025 205.56C260.442 204.487 259.648 203.67 258.645 203.11C257.665 202.55 256.58 202.27 255.39 202.27C254.223 202.27 253.138 202.562 252.135 203.145C251.155 203.705 250.362 204.533 249.755 205.63C249.172 206.703 248.88 207.952 248.88 209.375C248.88 210.822 249.172 212.093 249.755 213.19C250.362 214.263 251.155 215.092 252.135 215.675C253.138 216.235 254.223 216.515 255.39 216.515C256.58 216.515 257.665 216.235 258.645 215.675C259.648 215.092 260.442 214.263 261.025 213.19C261.608 212.093 261.9 210.81 261.9 209.34ZM277.712 219.315C275.916 219.315 274.282 218.907 272.812 218.09C271.366 217.273 270.222 216.118 269.382 214.625C268.566 213.108 268.157 211.358 268.157 209.375C268.157 207.415 268.577 205.688 269.417 204.195C270.281 202.678 271.447 201.523 272.917 200.73C274.387 199.913 276.032 199.505 277.852 199.505C279.672 199.505 281.317 199.913 282.787 200.73C284.257 201.523 285.412 202.667 286.252 204.16C287.116 205.653 287.547 207.392 287.547 209.375C287.547 211.358 287.104 213.108 286.217 214.625C285.354 216.118 284.176 217.273 282.682 218.09C281.189 218.907 279.532 219.315 277.712 219.315ZM277.712 216.515C278.856 216.515 279.929 216.247 280.932 215.71C281.936 215.173 282.741 214.368 283.347 213.295C283.977 212.222 284.292 210.915 284.292 209.375C284.292 207.835 283.989 206.528 283.382 205.455C282.776 204.382 281.982 203.588 281.002 203.075C280.022 202.538 278.961 202.27 277.817 202.27C276.651 202.27 275.577 202.538 274.597 203.075C273.641 203.588 272.871 204.382 272.287 205.455C271.704 206.528 271.412 207.835 271.412 209.375C271.412 210.938 271.692 212.257 272.252 213.33C272.836 214.403 273.606 215.208 274.562 215.745C275.519 216.258 276.569 216.515 277.712 216.515ZM317.285 199.82L311.3 219H308.01L303.39 203.775L298.77 219H295.48L289.46 199.82H292.715L297.125 215.92L301.885 199.82H305.14L309.795 215.955L314.135 199.82H317.285ZM337.946 208.675C337.946 209.282 337.911 209.923 337.841 210.6H322.511C322.628 212.49 323.269 213.972 324.436 215.045C325.626 216.095 327.061 216.62 328.741 216.62C330.118 216.62 331.261 216.305 332.171 215.675C333.104 215.022 333.758 214.158 334.131 213.085H337.561C337.048 214.928 336.021 216.433 334.481 217.6C332.941 218.743 331.028 219.315 328.741 219.315C326.921 219.315 325.288 218.907 323.841 218.09C322.418 217.273 321.298 216.118 320.481 214.625C319.664 213.108 319.256 211.358 319.256 209.375C319.256 207.392 319.653 205.653 320.446 204.16C321.239 202.667 322.348 201.523 323.771 200.73C325.218 199.913 326.874 199.505 328.741 199.505C330.561 199.505 332.171 199.902 333.571 200.695C334.971 201.488 336.044 202.585 336.791 203.985C337.561 205.362 337.946 206.925 337.946 208.675ZM334.656 208.01C334.656 206.797 334.388 205.758 333.851 204.895C333.314 204.008 332.579 203.343 331.646 202.9C330.736 202.433 329.721 202.2 328.601 202.2C326.991 202.2 325.614 202.713 324.471 203.74C323.351 204.767 322.709 206.19 322.546 208.01H334.656ZM345.335 202.935C345.895 201.838 346.688 200.987 347.715 200.38C348.765 199.773 350.037 199.47 351.53 199.47V202.76H350.69C347.12 202.76 345.335 204.697 345.335 208.57V219H342.15V199.82H345.335V202.935ZM372.707 208.675C372.707 209.282 372.672 209.923 372.602 210.6H357.272C357.388 212.49 358.03 213.972 359.197 215.045C360.387 216.095 361.822 216.62 363.502 216.62C364.878 216.62 366.022 216.305 366.932 215.675C367.865 215.022 368.518 214.158 368.892 213.085H372.322C371.808 214.928 370.782 216.433 369.242 217.6C367.702 218.743 365.788 219.315 363.502 219.315C361.682 219.315 360.048 218.907 358.602 218.09C357.178 217.273 356.058 216.118 355.242 214.625C354.425 213.108 354.017 211.358 354.017 209.375C354.017 207.392 354.413 205.653 355.207 204.16C356 202.667 357.108 201.523 358.532 200.73C359.978 199.913 361.635 199.505 363.502 199.505C365.322 199.505 366.932 199.902 368.332 200.695C369.732 201.488 370.805 202.585 371.552 203.985C372.322 205.362 372.707 206.925 372.707 208.675ZM369.417 208.01C369.417 206.797 369.148 205.758 368.612 204.895C368.075 204.008 367.34 203.343 366.407 202.9C365.497 202.433 364.482 202.2 363.362 202.2C361.752 202.2 360.375 202.713 359.232 203.74C358.112 204.767 357.47 206.19 357.307 208.01H369.417ZM375.721 209.34C375.721 207.38 376.117 205.665 376.911 204.195C377.704 202.702 378.789 201.547 380.166 200.73C381.566 199.913 383.129 199.505 384.856 199.505C386.349 199.505 387.737 199.855 389.021 200.555C390.304 201.232 391.284 202.13 391.961 203.25V193.1H395.181V219H391.961V215.395C391.331 216.538 390.397 217.483 389.161 218.23C387.924 218.953 386.477 219.315 384.821 219.315C383.117 219.315 381.566 218.895 380.166 218.055C378.789 217.215 377.704 216.037 376.911 214.52C376.117 213.003 375.721 211.277 375.721 209.34ZM391.961 209.375C391.961 207.928 391.669 206.668 391.086 205.595C390.502 204.522 389.709 203.705 388.706 203.145C387.726 202.562 386.641 202.27 385.451 202.27C384.261 202.27 383.176 202.55 382.196 203.11C381.216 203.67 380.434 204.487 379.851 205.56C379.267 206.633 378.976 207.893 378.976 209.34C378.976 210.81 379.267 212.093 379.851 213.19C380.434 214.263 381.216 215.092 382.196 215.675C383.176 216.235 384.261 216.515 385.451 216.515C386.641 216.515 387.726 216.235 388.706 215.675C389.709 215.092 390.502 214.263 391.086 213.19C391.669 212.093 391.961 210.822 391.961 209.375ZM413.079 203.39C413.733 202.247 414.689 201.313 415.949 200.59C417.209 199.867 418.644 199.505 420.254 199.505C421.981 199.505 423.533 199.913 424.909 200.73C426.286 201.547 427.371 202.702 428.164 204.195C428.958 205.665 429.354 207.38 429.354 209.34C429.354 211.277 428.958 213.003 428.164 214.52C427.371 216.037 426.274 217.215 424.874 218.055C423.498 218.895 421.958 219.315 420.254 219.315C418.598 219.315 417.139 218.953 415.879 218.23C414.643 217.507 413.709 216.585 413.079 215.465V219H409.894V193.1H413.079V203.39ZM426.099 209.34C426.099 207.893 425.808 206.633 425.224 205.56C424.641 204.487 423.848 203.67 422.844 203.11C421.864 202.55 420.779 202.27 419.589 202.27C418.423 202.27 417.338 202.562 416.334 203.145C415.354 203.705 414.561 204.533 413.954 205.63C413.371 206.703 413.079 207.952 413.079 209.375C413.079 210.822 413.371 212.093 413.954 213.19C414.561 214.263 415.354 215.092 416.334 215.675C417.338 216.235 418.423 216.515 419.589 216.515C420.779 216.515 421.864 216.235 422.844 215.675C423.848 215.092 424.641 214.263 425.224 213.19C425.808 212.093 426.099 210.81 426.099 209.34ZM450.067 199.82L438.517 228.03H435.227L439.007 218.79L431.272 199.82H434.807L440.827 215.36L446.777 199.82H450.067Z" fill="black"/>
<path d="M479.278 219.45C477.862 219.45 476.478 219.25 475.128 218.85C473.778 218.45 472.353 217.825 470.853 216.975L468.953 219H467.753L466.803 206.325L468.403 206.025C469.42 209.875 470.77 212.667 472.453 214.4C474.137 216.133 476.362 217 479.128 217C481.345 217 483.095 216.475 484.378 215.425C485.678 214.358 486.328 212.908 486.328 211.075C486.328 209.758 485.878 208.567 484.978 207.5C484.078 206.417 482.587 205.308 480.503 204.175L476.603 202.175C473.437 200.508 471.145 198.792 469.728 197.025C468.328 195.258 467.628 193.2 467.628 190.85C467.628 188.85 468.137 187.067 469.153 185.5C470.187 183.917 471.587 182.675 473.353 181.775C475.137 180.858 477.145 180.4 479.378 180.4C482.445 180.4 485.103 181.425 487.353 183.475L488.753 180.875H490.028L490.478 191.8H488.803C488.02 188.783 486.87 186.542 485.353 185.075C483.853 183.608 481.937 182.875 479.603 182.875C477.803 182.875 476.387 183.342 475.353 184.275C474.32 185.208 473.803 186.492 473.803 188.125C473.803 189.542 474.287 190.808 475.253 191.925C476.22 193.025 477.862 194.175 480.178 195.375L483.978 197.4C486.728 198.833 488.712 200.417 489.928 202.15C491.145 203.883 491.753 205.908 491.753 208.225C491.753 210.358 491.203 212.275 490.103 213.975C489.003 215.658 487.512 216.992 485.628 217.975C483.745 218.958 481.628 219.45 479.278 219.45ZM495.919 219V217.675L499.844 216.85V196.9L495.969 195.55V194.65L505.119 192.275H505.819V216.85L509.644 217.675V219H495.919ZM502.794 187.55C501.66 187.55 500.769 187.192 500.119 186.475C499.469 185.758 499.144 184.942 499.144 184.025C499.144 183.025 499.469 182.175 500.119 181.475C500.785 180.758 501.677 180.4 502.794 180.4C503.927 180.4 504.827 180.758 505.494 181.475C506.16 182.175 506.494 183.025 506.494 184.025C506.494 184.942 506.169 185.758 505.519 186.475C504.869 187.192 503.96 187.55 502.794 187.55ZM523.432 219.525C521.415 219.525 519.599 218.95 517.982 217.8C516.382 216.65 515.107 215.083 514.157 213.1C513.224 211.1 512.757 208.842 512.757 206.325C512.757 203.558 513.315 201.125 514.432 199.025C515.549 196.908 517.099 195.258 519.082 194.075C521.082 192.875 523.382 192.275 525.982 192.275C527.849 192.275 529.682 192.6 531.482 193.25V182.6L527.632 181.2V180.35L536.682 177.925H537.407V214.75L541.007 215.675V216.4L532.432 219.525H531.857V215.75L531.632 215.675C530.599 216.925 529.382 217.883 527.982 218.55C526.582 219.2 525.065 219.525 523.432 219.525ZM525.957 216.125C527.107 216.125 528.165 215.875 529.132 215.375C530.115 214.875 530.899 214.2 531.482 213.35V200C531.482 198.2 531.032 196.8 530.132 195.8C529.232 194.783 527.965 194.275 526.332 194.275C524.232 194.275 522.54 195.308 521.257 197.375C519.974 199.425 519.332 202.142 519.332 205.525C519.332 208.792 519.915 211.375 521.082 213.275C522.265 215.175 523.89 216.125 525.957 216.125ZM554.828 219.525C552.812 219.525 550.995 218.95 549.378 217.8C547.778 216.65 546.503 215.083 545.553 213.1C544.62 211.1 544.153 208.842 544.153 206.325C544.153 203.558 544.712 201.125 545.828 199.025C546.945 196.908 548.495 195.258 550.478 194.075C552.478 192.875 554.778 192.275 557.378 192.275C559.245 192.275 561.078 192.6 562.878 193.25V182.6L559.028 181.2V180.35L568.078 177.925H568.803V214.75L572.403 215.675V216.4L563.828 219.525H563.253V215.75L563.028 215.675C561.995 216.925 560.778 217.883 559.378 218.55C557.978 219.2 556.462 219.525 554.828 219.525ZM557.353 216.125C558.503 216.125 559.562 215.875 560.528 215.375C561.512 214.875 562.295 214.2 562.878 213.35V200C562.878 198.2 562.428 196.8 561.528 195.8C560.628 194.783 559.362 194.275 557.728 194.275C555.628 194.275 553.937 195.308 552.653 197.375C551.37 199.425 550.728 202.142 550.728 205.525C550.728 208.792 551.312 211.375 552.478 213.275C553.662 215.175 555.287 216.125 557.353 216.125ZM574.475 219V217.675L578.225 216.85V182.55L574.5 181.2V180.325L583.425 177.925H584.175V216.85L587.775 217.675V219H574.475ZM591.45 219V217.675L595.05 216.875V201.65C595.05 199.65 594.641 198.167 593.825 197.2C593.025 196.217 591.758 195.725 590.025 195.725C588.841 195.725 587.716 195.992 586.65 196.525C585.6 197.058 584.608 197.8 583.675 198.75V196.35C585.125 195.083 586.708 194.092 588.425 193.375C590.158 192.642 591.883 192.275 593.6 192.275C598.533 192.275 601 194.733 601 199.65V216.875L604.725 217.675V219H591.45ZM614.075 219.525C612.209 219.525 610.709 218.983 609.575 217.9C608.459 216.8 607.9 215.35 607.9 213.55C607.9 212.017 608.367 210.7 609.3 209.6C610.25 208.483 611.75 207.525 613.8 206.725C615.85 205.908 618.534 205.2 621.85 204.6V200.275C621.85 198.125 621.584 196.642 621.05 195.825C620.534 194.992 619.609 194.575 618.275 194.575C616.942 194.575 615.884 194.9 615.1 195.55C614.317 196.183 613.925 197.05 613.925 198.15C613.925 198.483 613.95 198.817 614 199.15C614.05 199.483 614.075 199.8 614.075 200.1C614.075 200.983 613.792 201.717 613.225 202.3C612.675 202.867 611.984 203.15 611.15 203.15C610.35 203.15 609.7 202.892 609.2 202.375C608.7 201.858 608.45 201.183 608.45 200.35C608.45 199.283 608.875 198.2 609.725 197.1C610.592 195.983 611.75 195.017 613.2 194.2C615.434 192.917 617.967 192.275 620.8 192.275C622.367 192.275 623.667 192.5 624.7 192.95C625.734 193.383 626.492 194.008 626.975 194.825C627.275 195.408 627.484 196.158 627.6 197.075C627.734 197.975 627.8 199.408 627.8 201.375V212.225C627.8 213.792 627.934 214.883 628.2 215.5C628.467 216.1 628.95 216.4 629.65 216.4C630.45 216.4 631.225 215.958 631.975 215.075L632.95 216.175C632.05 217.342 631.125 218.192 630.175 218.725C629.225 219.258 628.142 219.525 626.925 219.525C625.492 219.525 624.384 219.175 623.6 218.475C622.817 217.758 622.3 216.683 622.05 215.25H621.9C620.85 216.6 619.65 217.65 618.3 218.4C616.967 219.15 615.559 219.525 614.075 219.525ZM617.25 215.85C618.167 215.85 619.017 215.633 619.8 215.2C620.6 214.75 621.284 214.125 621.85 213.325V206.4C619.817 206.8 618.225 207.242 617.075 207.725C615.925 208.192 615.109 208.775 614.625 209.475C614.159 210.158 613.925 211.033 613.925 212.1C613.925 213.317 614.2 214.25 614.75 214.9C615.317 215.533 616.15 215.85 617.25 215.85ZM643.796 219.525C641.713 219.525 640.163 218.992 639.146 217.925C638.146 216.842 637.646 215.233 637.646 213.1V194.825H634.321L634.121 193.725L642.446 186.225L643.596 186.375V192.775H650.921L650.396 194.825H643.596V212.6C643.596 215.317 644.596 216.675 646.596 216.675C647.246 216.675 647.871 216.525 648.471 216.225C649.088 215.925 649.621 215.483 650.071 214.9L651.046 215.95C650.246 217.067 649.205 217.942 647.921 218.575C646.655 219.208 645.28 219.525 643.796 219.525ZM666.103 219.525C663.587 219.525 661.378 218.975 659.478 217.875C657.578 216.758 656.103 215.208 655.053 213.225C654.02 211.225 653.503 208.917 653.503 206.3C653.503 203.517 654.087 201.075 655.253 198.975C656.42 196.875 658.045 195.233 660.128 194.05C662.228 192.867 664.653 192.275 667.403 192.275C670.87 192.275 673.512 193.258 675.328 195.225C677.162 197.175 678.12 200.042 678.203 203.825L677.853 204.15H657.728V202.425L671.653 201.925C671.787 201.525 671.853 200.875 671.853 199.975C671.853 196.142 670.187 194.225 666.853 194.225C664.603 194.225 662.87 195.133 661.653 196.95C660.453 198.767 659.853 201.342 659.853 204.675C659.853 211.742 662.587 215.275 668.053 215.275C671.687 215.275 674.495 213.975 676.478 211.375L677.553 212.15C676.687 214.483 675.245 216.3 673.228 217.6C671.228 218.883 668.853 219.525 666.103 219.525ZM680.967 219V217.675L684.942 216.85V182.55L681.067 181.2V180.35L690.067 177.925H690.792V216.85L694.767 217.675V219H680.967ZM701.892 219L692.692 206.25L696.342 201.7L707.642 216.85L711.767 217.675V219H701.892ZM689.542 210.45L688.917 208.1L698.992 197.05C699.358 196.633 699.633 196.283 699.817 196C700.017 195.7 700.117 195.45 700.117 195.25C700.117 194.967 699.85 194.742 699.317 194.575C698.783 194.408 697.742 194.242 696.192 194.075V192.775H708.342V194.075C706.958 194.308 705.892 194.533 705.142 194.75C704.392 194.967 703.792 195.242 703.342 195.575C702.892 195.892 702.408 196.333 701.892 196.9L689.542 210.45Z" fill="#066E63"/>
<path d="M120.35 58.79V160H100.05V94.17L72.935 160H57.565L30.305 94.17V160H10.005V58.79H33.06L65.25 134.045L97.44 58.79H120.35ZM150.715 70.1C147.138 70.1 144.142 68.9883 141.725 66.765C139.405 64.445 138.245 61.5933 138.245 58.21C138.245 54.8267 139.405 52.0233 141.725 49.8C144.142 47.48 147.138 46.32 150.715 46.32C154.292 46.32 157.24 47.48 159.56 49.8C161.977 52.0233 163.185 54.8267 163.185 58.21C163.185 61.5933 161.977 64.445 159.56 66.765C157.24 68.9883 154.292 70.1 150.715 70.1ZM160.72 79.67V160H140.42V79.67H160.72ZM211.516 161.305C204.943 161.305 199.046 160.145 193.826 157.825C188.606 155.408 184.45 152.17 181.356 148.11C178.36 144.05 176.716 139.555 176.426 134.625H196.871C197.258 137.718 198.756 140.28 201.366 142.31C204.073 144.34 207.408 145.355 211.371 145.355C215.238 145.355 218.235 144.582 220.361 143.035C222.585 141.488 223.696 139.507 223.696 137.09C223.696 134.48 222.343 132.547 219.636 131.29C217.026 129.937 212.821 128.487 207.021 126.94C201.028 125.49 196.098 123.992 192.231 122.445C188.461 120.898 185.175 118.53 182.371 115.34C179.665 112.15 178.311 107.848 178.311 102.435C178.311 97.9883 179.568 93.9283 182.081 90.255C184.691 86.5817 188.365 83.6817 193.101 81.555C197.935 79.4283 203.59 78.365 210.066 78.365C219.636 78.365 227.273 80.7817 232.976 85.615C238.68 90.3517 241.821 96.78 242.401 104.9H222.971C222.681 101.71 221.328 99.1967 218.911 97.36C216.591 95.4267 213.45 94.46 209.486 94.46C205.813 94.46 202.961 95.1367 200.931 96.49C198.998 97.8433 198.031 99.7283 198.031 102.145C198.031 104.852 199.385 106.93 202.091 108.38C204.798 109.733 209.003 111.135 214.706 112.585C220.506 114.035 225.291 115.533 229.061 117.08C232.831 118.627 236.07 121.043 238.776 124.33C241.58 127.52 243.03 131.773 243.126 137.09C243.126 141.73 241.821 145.887 239.211 149.56C236.698 153.233 233.025 156.133 228.191 158.26C223.455 160.29 217.896 161.305 211.516 161.305ZM290.53 161.305C283.957 161.305 278.06 160.145 272.84 157.825C267.62 155.408 263.463 152.17 260.37 148.11C257.373 144.05 255.73 139.555 255.44 134.625H275.885C276.272 137.718 277.77 140.28 280.38 142.31C283.087 144.34 286.422 145.355 290.385 145.355C294.252 145.355 297.248 144.582 299.375 143.035C301.598 141.488 302.71 139.507 302.71 137.09C302.71 134.48 301.357 132.547 298.65 131.29C296.04 129.937 291.835 128.487 286.035 126.94C280.042 125.49 275.112 123.992 271.245 122.445C267.475 120.898 264.188 118.53 261.385 115.34C258.678 112.15 257.325 107.848 257.325 102.435C257.325 97.9883 258.582 93.9283 261.095 90.255C263.705 86.5817 267.378 83.6817 272.115 81.555C276.948 79.4283 282.603 78.365 289.08 78.365C298.65 78.365 306.287 80.7817 311.99 85.615C317.693 90.3517 320.835 96.78 321.415 104.9H301.985C301.695 101.71 300.342 99.1967 297.925 97.36C295.605 95.4267 292.463 94.46 288.5 94.46C284.827 94.46 281.975 95.1367 279.945 96.49C278.012 97.8433 277.045 99.7283 277.045 102.145C277.045 104.852 278.398 106.93 281.105 108.38C283.812 109.733 288.017 111.135 293.72 112.585C299.52 114.035 304.305 115.533 308.075 117.08C311.845 118.627 315.083 121.043 317.79 124.33C320.593 127.52 322.043 131.773 322.14 137.09C322.14 141.73 320.835 145.887 318.225 149.56C315.712 153.233 312.038 156.133 307.205 158.26C302.468 160.29 296.91 161.305 290.53 161.305ZM349.099 70.1C345.522 70.1 342.525 68.9883 340.109 66.765C337.789 64.445 336.629 61.5933 336.629 58.21C336.629 54.8267 337.789 52.0233 340.109 49.8C342.525 47.48 345.522 46.32 349.099 46.32C352.675 46.32 355.624 47.48 357.944 49.8C360.36 52.0233 361.569 54.8267 361.569 58.21C361.569 61.5933 360.36 64.445 357.944 66.765C355.624 68.9883 352.675 70.1 349.099 70.1ZM359.104 79.67V160H338.804V79.67H359.104ZM414.83 161.305C407.097 161.305 400.137 159.613 393.95 156.23C387.764 152.75 382.882 147.868 379.305 141.585C375.825 135.302 374.085 128.052 374.085 119.835C374.085 111.618 375.874 104.368 379.45 98.085C383.124 91.8017 388.102 86.9683 394.385 83.585C400.669 80.105 407.677 78.365 415.41 78.365C423.144 78.365 430.152 80.105 436.435 83.585C442.719 86.9683 447.649 91.8017 451.225 98.085C454.899 104.368 456.735 111.618 456.735 119.835C456.735 128.052 454.85 135.302 451.08 141.585C447.407 147.868 442.38 152.75 436 156.23C429.717 159.613 422.66 161.305 414.83 161.305ZM414.83 143.615C418.504 143.615 421.935 142.745 425.125 141.005C428.412 139.168 431.022 136.462 432.955 132.885C434.889 129.308 435.855 124.958 435.855 119.835C435.855 112.198 433.825 106.35 429.765 102.29C425.802 98.1333 420.92 96.055 415.12 96.055C409.32 96.055 404.439 98.1333 400.475 102.29C396.609 106.35 394.675 112.198 394.675 119.835C394.675 127.472 396.56 133.368 400.33 137.525C404.197 141.585 409.03 143.615 414.83 143.615ZM516.141 78.51C525.711 78.51 533.444 81.555 539.341 87.645C545.238 93.6383 548.186 102.048 548.186 112.875V160H527.886V115.63C527.886 109.25 526.291 104.368 523.101 100.985C519.911 97.505 515.561 95.765 510.051 95.765C504.444 95.765 499.998 97.505 496.711 100.985C493.521 104.368 491.926 109.25 491.926 115.63V160H471.626V79.67H491.926V89.675C494.633 86.195 498.064 83.4883 502.221 81.555C506.474 79.525 511.114 78.51 516.141 78.51ZM675.846 90.11C675.846 95.5233 674.541 100.598 671.931 105.335C669.418 110.072 665.406 113.89 659.896 116.79C654.483 119.69 647.619 121.14 639.306 121.14H622.341V160H602.041V58.79H639.306C647.136 58.79 653.806 60.1433 659.316 62.85C664.826 65.5567 668.934 69.2783 671.641 74.015C674.444 78.7517 675.846 84.1167 675.846 90.11ZM638.436 104.755C644.043 104.755 648.199 103.498 650.906 100.985C653.613 98.375 654.966 94.75 654.966 90.11C654.966 80.25 649.456 75.32 638.436 75.32H622.341V104.755H638.436ZM764.934 118.095C764.934 120.995 764.741 123.605 764.354 125.925H705.629C706.112 131.725 708.142 136.268 711.719 139.555C715.296 142.842 719.694 144.485 724.914 144.485C732.454 144.485 737.819 141.247 741.009 134.77H762.904C760.584 142.503 756.137 148.883 749.564 153.91C742.991 158.84 734.919 161.305 725.349 161.305C717.616 161.305 710.656 159.613 704.469 156.23C698.379 152.75 693.594 147.868 690.114 141.585C686.731 135.302 685.039 128.052 685.039 119.835C685.039 111.522 686.731 104.223 690.114 97.94C693.497 91.6567 698.234 86.8233 704.324 83.44C710.414 80.0567 717.422 78.365 725.349 78.365C732.986 78.365 739.801 80.0083 745.794 83.295C751.884 86.5817 756.572 91.27 759.859 97.36C763.242 103.353 764.934 110.265 764.934 118.095ZM743.909 112.295C743.812 107.075 741.927 102.918 738.254 99.825C734.581 96.635 730.086 95.04 724.769 95.04C719.742 95.04 715.489 96.5867 712.009 99.68C708.626 102.677 706.547 106.882 705.774 112.295H743.909ZM774.531 119.545C774.531 111.425 776.126 104.223 779.316 97.94C782.603 91.6567 787.001 86.8233 792.511 83.44C798.118 80.0567 804.353 78.365 811.216 78.365C817.209 78.365 822.429 79.5733 826.876 81.99C831.419 84.4067 835.044 87.4517 837.751 91.125V79.67H858.196V160H837.751V148.255C835.141 152.025 831.516 155.167 826.876 157.68C822.333 160.097 817.064 161.305 811.071 161.305C804.304 161.305 798.118 159.565 792.511 156.085C787.001 152.605 782.603 147.723 779.316 141.44C776.126 135.06 774.531 127.762 774.531 119.545ZM837.751 119.835C837.751 114.905 836.784 110.7 834.851 107.22C832.918 103.643 830.308 100.937 827.021 99.1C823.734 97.1667 820.206 96.2 816.436 96.2C812.666 96.2 809.186 97.1183 805.996 98.955C802.806 100.792 800.196 103.498 798.166 107.075C796.233 110.555 795.266 114.712 795.266 119.545C795.266 124.378 796.233 128.632 798.166 132.305C800.196 135.882 802.806 138.637 805.996 140.57C809.283 142.503 812.763 143.47 816.436 143.47C820.206 143.47 823.734 142.552 827.021 140.715C830.308 138.782 832.918 136.075 834.851 132.595C836.784 129.018 837.751 124.765 837.751 119.835ZM925.583 160L898.323 125.78V160H878.023V52.7H898.323V113.745L925.293 79.67H951.683L916.303 119.98L951.973 160H925.583Z" fill="#014558"/>
</svg>
