<svg width="512" height="512" viewBox="0 0 512 512" fill="none" xmlns="http://www.w3.org/2000/svg">
<path d="M256.656 279.316C325.893 279.316 382.02 223.169 382.02 153.908C382.02 84.647 325.893 28.5 256.656 28.5C187.419 28.5 131.291 84.647 131.291 153.908C131.291 223.169 187.419 279.316 256.656 279.316Z" fill="url(#paint0_linear_311_177)"/>
<path d="M56.0459 449.225V493.264H45.3221V466.853L35.4762 493.264H26.8219L16.9133 466.79V493.264H6.18945V449.225H18.8574L31.2117 479.714L43.4407 449.225H56.0459ZM80.1258 449.225V493.264H69.4018V449.225H80.1258ZM109.47 493.704C106.251 493.704 103.366 493.181 100.815 492.135C98.2653 491.09 96.2166 489.542 94.6699 487.493C93.1649 485.444 92.3704 482.976 92.2871 480.09H103.7C103.868 481.721 104.432 482.976 105.394 483.854C106.355 484.691 107.609 485.109 109.157 485.109C110.745 485.109 111.999 484.754 112.919 484.042C113.839 483.29 114.299 482.265 114.299 480.968C114.299 479.881 113.923 478.982 113.17 478.271C112.46 477.56 111.561 476.975 110.474 476.514C109.428 476.054 107.923 475.531 105.958 474.946C103.115 474.068 100.795 473.189 98.9969 472.311C97.1996 471.433 95.6523 470.136 94.3563 468.422C93.0604 466.707 92.4121 464.47 92.4121 461.709C92.4121 457.61 93.8966 454.411 96.8648 452.111C99.8331 449.769 103.7 448.597 108.467 448.597C113.316 448.597 117.225 449.769 120.194 452.111C123.162 454.411 124.751 457.632 124.96 461.772H113.358C113.275 460.35 112.752 459.242 111.79 458.447C110.829 457.61 109.595 457.192 108.09 457.192C106.794 457.192 105.749 457.548 104.955 458.259C104.16 458.928 103.763 459.911 103.763 461.207C103.763 462.629 104.432 463.738 105.77 464.532C107.108 465.327 109.198 466.184 112.042 467.104C114.884 468.066 117.184 468.986 118.94 469.865C120.737 470.743 122.285 472.018 123.58 473.691C124.876 475.364 125.525 477.518 125.525 480.153C125.525 482.662 124.876 484.942 123.58 486.991C122.326 489.04 120.487 490.672 118.061 491.884C115.637 493.097 112.773 493.704 109.47 493.704ZM153.697 493.704C150.478 493.704 147.593 493.181 145.043 492.135C142.493 491.09 140.444 489.542 138.897 487.493C137.392 485.444 136.597 482.976 136.514 480.09H147.928C148.095 481.721 148.659 482.976 149.621 483.854C150.583 484.691 151.837 485.109 153.383 485.109C154.972 485.109 156.227 484.754 157.146 484.042C158.066 483.29 158.526 482.265 158.526 480.968C158.526 479.881 158.15 478.982 157.397 478.271C156.686 477.56 155.787 476.975 154.701 476.514C153.655 476.054 152.15 475.531 150.185 474.946C147.342 474.068 145.022 473.189 143.224 472.311C141.426 471.433 139.88 470.136 138.583 468.422C137.287 466.707 136.64 464.47 136.64 461.709C136.64 457.61 138.123 454.411 141.092 452.111C144.061 449.769 147.928 448.597 152.693 448.597C157.544 448.597 161.453 449.769 164.421 452.111C167.389 454.411 168.978 457.632 169.187 461.772H157.585C157.501 460.35 156.979 459.242 156.018 458.447C155.056 457.61 153.823 457.192 152.318 457.192C151.021 457.192 149.976 457.548 149.182 458.259C148.388 458.928 147.99 459.911 147.99 461.207C147.99 462.629 148.659 463.738 149.997 464.532C151.335 465.327 153.425 466.184 156.268 467.104C159.112 468.066 161.411 468.986 163.167 469.865C164.965 470.743 166.511 472.018 167.807 473.691C169.103 475.364 169.751 477.518 169.751 480.153C169.751 482.662 169.103 484.942 167.807 486.991C166.553 489.04 164.713 490.672 162.289 491.884C159.864 493.097 157 493.704 153.697 493.704ZM192.719 449.225V493.264H181.995V449.225H192.719ZM226.955 493.704C222.816 493.704 219.012 492.742 215.541 490.818C212.113 488.894 209.375 486.217 207.326 482.788C205.319 479.317 204.316 475.427 204.316 471.119C204.316 466.811 205.319 462.943 207.326 459.514C209.375 456.084 212.113 453.407 215.541 451.483C219.012 449.56 222.816 448.597 226.955 448.597C231.094 448.597 234.878 449.56 238.306 451.483C241.776 453.407 244.494 456.084 246.459 459.514C248.465 462.943 249.469 466.811 249.469 471.119C249.469 475.427 248.465 479.317 246.459 482.788C244.452 486.217 241.734 488.894 238.306 490.818C234.878 492.742 231.094 493.704 226.955 493.704ZM226.955 483.917C230.467 483.917 233.268 482.746 235.359 480.404C237.491 478.062 238.557 474.967 238.557 471.119C238.557 467.23 237.491 464.135 235.359 461.834C233.268 459.492 230.467 458.321 226.955 458.321C223.401 458.321 220.558 459.471 218.426 461.772C216.336 464.072 215.291 467.188 215.291 471.119C215.291 475.009 216.336 478.125 218.426 480.467C220.558 482.767 223.401 483.917 226.955 483.917ZM300.462 493.264H289.738L271.803 466.101V493.264H261.079V449.225H271.803L289.738 476.514V449.225H300.462V493.264ZM366.365 463.403C366.365 465.954 365.779 468.296 364.609 470.429C363.438 472.52 361.641 474.214 359.216 475.511C356.791 476.807 353.781 477.455 350.185 477.455H343.538V493.264H332.814V449.225H350.185C353.697 449.225 356.666 449.832 359.09 451.045C361.515 452.257 363.334 453.93 364.546 456.063C365.759 458.196 366.365 460.643 366.365 463.403ZM349.37 468.924C351.418 468.924 352.944 468.443 353.948 467.481C354.952 466.519 355.453 465.16 355.453 463.403C355.453 461.646 354.952 460.287 353.948 459.325C352.944 458.364 351.418 457.882 349.37 457.882H343.538V468.924H349.37ZM388.316 457.82V466.728H402.677V475.009H388.316V484.67H404.558V493.264H377.592V449.225H404.558V457.82H388.316ZM444.57 485.485H428.139L425.506 493.264H414.28L430.209 449.225H442.626L458.555 493.264H447.204L444.57 485.485ZM441.811 477.204L436.355 461.082L430.961 477.204H441.811ZM494.571 493.264L479.771 473.817V493.264H469.047V449.225H479.771V468.547L494.445 449.225H507.051L489.993 470.806L507.678 493.264H494.571Z" fill="#01475B"/>
<path d="M258.303 414.696C258.103 325.852 257.222 149.979 257.703 140.309L258.499 111.552L473.138 415.25L258.303 414.696Z" fill="#D2FAF5"/>
<path d="M108.057 322.5L116.489 309.837L149.099 341.5L133.749 361.5L108.057 322.5Z" fill="#80CDD5"/>
<path d="M116.489 309.837L257.562 108.58L398.333 309.232L385.041 326.457L257.562 143.029L180.64 250.5L195.333 279.013L257.562 188.962L349.093 334.616C356.343 349.423 338.822 355.165 332.478 343.984L257.562 223.713C257.864 256.753 258.287 326.517 257.562 341.264C256.837 356.011 267.732 355.87 273.27 353.956L313.447 414.998H472.343L420.083 340.358L388.364 381.153C378.456 391.065 370.541 383.268 367.822 378.131L417.666 307.419L507.083 435.849H6.22852L96.5514 305.606L129.479 353.956L138.843 340.962L116.489 309.837Z" fill="url(#paint1_linear_311_177)"/>
<path d="M257.562 188.962V143.029L180.64 250.5L195.333 279.013L257.562 188.962Z" fill="#80CDD5"/>
<path d="M42.4785 417.717L93.2285 344.588V380.851L66.6452 417.717H42.4785Z" fill="#7AC7CF"/>
<path d="M179.088 333.249L224.098 272.811C228.207 270.636 228.025 273.718 227.421 275.531L183.921 336.573C179.33 339.232 178.786 335.465 179.088 333.249Z" fill="#80CDD5"/>
<path d="M83.6245 76H116.249C120.253 76 123.499 79.2471 123.499 83.2525C123.499 87.2579 120.253 90.505 116.249 90.505H83.6245C79.6204 90.505 76.3745 87.2579 76.3745 83.2525C76.3745 79.2471 79.6204 76 83.6245 76Z" fill="#014558"/>
<path d="M84.5615 119.936H105.707C109.711 119.936 112.957 123.183 112.957 127.189C112.957 131.194 109.711 134.441 105.707 134.441H84.5615C80.5575 134.441 77.3116 131.194 77.3116 127.189C77.3116 123.183 80.5575 119.936 84.5615 119.936Z" fill="#014558"/>
<path d="M120.06 208.5H121.269C125.273 208.5 128.519 211.747 128.519 215.753C128.519 219.758 125.273 223.005 121.269 223.005H120.06C116.056 223.005 112.81 219.758 112.81 215.753C112.81 211.747 116.056 208.5 120.06 208.5Z" fill="#014558"/>
<path d="M89.2493 208.5H90.4576C94.4616 208.5 97.7075 211.747 97.7075 215.753C97.7075 219.758 94.4616 223.005 90.4576 223.005H89.2493C85.2452 223.005 81.9993 219.758 81.9993 215.753C81.9993 211.747 85.2452 208.5 89.2493 208.5Z" fill="#014558"/>
<path d="M52.2919 119.936H54.7086C58.7126 119.936 61.9585 123.183 61.9585 127.189C61.9585 131.194 58.7126 134.441 54.7086 134.441H52.2919C48.2879 134.441 45.042 131.194 45.042 127.189C45.042 123.183 48.2879 119.936 52.2919 119.936Z" fill="#014558"/>
<path d="M428.893 76H396.269C392.265 76 389.019 79.2471 389.019 83.2525C389.019 87.2579 392.265 90.505 396.269 90.505H428.893C432.897 90.505 436.142 87.2579 436.142 83.2525C436.142 79.2471 432.897 76 428.893 76Z" fill="#014558"/>
<path d="M427.956 119.936H406.811C402.807 119.936 399.561 123.183 399.561 127.189C399.561 131.194 402.807 134.441 406.811 134.441H427.956C431.96 134.441 435.206 131.194 435.206 127.189C435.206 123.183 431.96 119.936 427.956 119.936Z" fill="#014558"/>
<path d="M90.5828 163.634H108.708C112.712 163.634 115.958 166.881 115.958 170.887C115.958 174.892 112.712 178.139 108.708 178.139H90.5828C86.5788 178.139 83.3329 174.892 83.3329 170.887C83.3329 166.881 86.5788 163.634 90.5828 163.634Z" fill="#014558"/>
<path d="M57.7493 164.843H60.7701C64.7741 164.843 68.02 168.09 68.02 172.096C68.02 176.101 64.7741 179.348 60.7701 179.348H57.7493C53.7453 179.348 50.4994 176.101 50.4994 172.096C50.4994 168.09 53.7453 164.843 57.7493 164.843Z" fill="#014558"/>
<path d="M421.934 163.634H403.81C399.806 163.634 396.56 166.881 396.56 170.887C396.56 174.892 399.806 178.139 403.81 178.139H421.934C425.938 178.139 429.184 174.892 429.184 170.887C429.184 166.881 425.938 163.634 421.934 163.634Z" fill="#014558"/>
<path d="M454.767 164.843H451.746C447.742 164.843 444.497 168.09 444.497 172.096C444.497 176.101 447.742 179.348 451.746 179.348H454.767C458.771 179.348 462.017 176.101 462.017 172.096C462.017 168.09 458.771 164.843 454.767 164.843Z" fill="#014558"/>
<path d="M121.583 40H139.708C143.712 40 146.958 43.2471 146.958 47.2525C146.958 51.2579 143.712 54.505 139.708 54.505H121.583C117.579 54.505 114.333 51.2579 114.333 47.2525C114.333 43.2471 117.579 40 121.583 40Z" fill="#014558"/>
<path d="M393.434 40H375.31C371.306 40 368.06 43.2471 368.06 47.2525C368.06 51.2579 371.306 54.505 375.31 54.505H393.434C397.438 54.505 400.684 51.2579 400.684 47.2525C400.684 43.2471 397.438 40 393.434 40Z" fill="#014558"/>
<path d="M393.458 208.5H392.249C388.245 208.5 384.999 211.747 384.999 215.753C384.999 219.758 388.245 223.005 392.249 223.005H393.458C397.461 223.005 400.707 219.758 400.707 215.753C400.707 211.747 397.461 208.5 393.458 208.5Z" fill="#014558"/>
<path d="M424.268 208.5H423.06C419.056 208.5 415.81 211.747 415.81 215.753C415.81 219.758 419.056 223.005 423.06 223.005H424.268C428.272 223.005 431.518 219.758 431.518 215.753C431.518 211.747 428.272 208.5 424.268 208.5Z" fill="#014558"/>
<path d="M460.224 119.936H457.808C453.804 119.936 450.558 123.183 450.558 127.189C450.558 131.194 453.804 134.441 457.808 134.441H460.224C464.228 134.441 467.474 131.194 467.474 127.189C467.474 123.183 464.228 119.936 460.224 119.936Z" fill="#014558"/>
<defs>
<linearGradient id="paint0_linear_311_177" x1="256.656" y1="28.5" x2="256.656" y2="279.316" gradientUnits="userSpaceOnUse">
<stop offset="0.316223" stop-color="#06C6CB"/>
<stop offset="1" stop-color="#024659"/>
</linearGradient>
<linearGradient id="paint1_linear_311_177" x1="256.656" y1="40" x2="256.656" y2="435.849" gradientUnits="userSpaceOnUse">
<stop stop-color="#015F7A"/>
<stop offset="1" stop-color="#014558"/>
</linearGradient>
</defs>
</svg>
